<svg width="25" height="25" viewBox="0 0 25 25" fill="none" xmlns="http://www.w3.org/2000/svg">
<circle cx="12.5" cy="12.5" r="12.5" fill="#1A411D"/>
<path d="M7.66667 5.33325V17.3333H7V18.6666H9.66667V17.3333H9V13.9999H17.6667C17.8435 13.9999 18.013 13.9297 18.1381 13.8047C18.2631 13.6796 18.3333 13.5101 18.3333 13.3333V6.66659C18.3333 6.48977 18.2631 6.3202 18.1381 6.19518C18.013 6.07016 17.8435 5.99992 17.6667 5.99992H9V5.33325H7.66667ZM10.3333 7.33325V8.66659H11.6667V7.33325H13V8.66659H14.3333V7.33325H15.6667V8.66659H17V9.99992H15.6667V11.3333H17V12.6666H15.6667V11.3333H14.3333V12.6666H13V11.3333H11.6667V12.6666H10.3333V11.3333H9V9.99992H10.3333V8.66659H9V7.33325H10.3333Z" fill="white"/>
<path d="M10.3333 10.0001H11.6666V11.3334H10.3333V10.0001ZM13 10.0001H14.3333V11.3334H13V10.0001ZM11.6666 8.66675H13V10.0001H11.6666V8.66675ZM14.3333 8.66675H15.6666V10.0001H14.3333V8.66675Z" fill="white"/>
</svg>
